{
	"asset":{
		"generator":"Khronos glTF Blender I/O v3.6.27",
		"version":"2.0"
	},
	"scene":0,
	"scenes":[
		{
			"name":"Scene",
			"nodes":[
				0
			]
		}
	],
	"nodes":[
		{
			"mesh":0,
			"name":"FreeF&M.004",
			"rotation":[
				0,
				0,
				0.6342797875404358,
				0.7731035947799683
			],
			"translation":[
				-0.0032614446245133877,
				0.10944771766662598,
				-0.015971198678016663
			]
		}
	],
	"materials":[
		{
			"doubleSided":true,
			"name":"Material.001",
			"pbrMetallicRoughness":{
				"baseColorFactor":[
					0.43388453125953674,
					0.40242621302604675,
					0.4302137494087219,
					1
				],
				"metallicFactor":0,
				"roughnessFactor":0.5
			}
		}
	],
	"meshes":[
		{
			"name":"FreeF&MSTL.004",
			"primitives":[
				{
					"attributes":{
						"POSITION":0,
						"NORMAL":1
					},
					"indices":2,
					"material":0
				}
			]
		}
	],
	"accessors":[
		{
			"bufferView":0,
			"componentType":5126,
			"count":2070,
			"max":[
				0.0010734796524047852,
				0.6814150810241699,
				0.3874887526035309
			],
			"min":[
				-0.45410090684890747,
				-1.0099201202392578,
				-0.26782259345054626
			],
			"type":"VEC3"
		},
		{
			"bufferView":1,
			"componentType":5126,
			"count":2070,
			"type":"VEC3"
		},
		{
			"bufferView":2,
			"componentType":5123,
			"count":12408,
			"type":"SCALAR"
		}
	],
	"bufferViews":[
		{
			"buffer":0,
			"byteLength":24840,
			"byteOffset":0,
			"target":34962
		},
		{
			"buffer":0,
			"byteLength":24840,
			"byteOffset":24840,
			"target":34962
		},
		{
			"buffer":0,
			"byteLength":24816,
			"byteOffset":49680,
			"target":34963
		}
	],
	"buffers":[
		{
			"byteLength":74496,
			"uri":"data:application/octet-stream;base64,"
		}
	]
}
